<?xml version="1.0" standalone="no"?>
<!DOCTYPE svg PUBLIC "-//W3C//DTD SVG 20010904//EN"
 "http://www.w3.org/TR/2001/REC-SVG-20010904/DTD/svg10.dtd">
<svg version="1.0" xmlns="http://www.w3.org/2000/svg"
 width="1024.000000pt" height="1024.000000pt" viewBox="0 0 1024.000000 1024.000000"
 preserveAspectRatio="xMidYMid meet">
<metadata>
Created by potrace 1.14, written by Peter Selinger 2001-2017
</metadata>
<g transform="translate(0.000000,1024.000000) scale(0.100000,-0.100000)"
fill="#000000" stroke="none">
<path d="M2755 8499 c-120 -24 -250 -71 -359 -127 -144 -74 -255 -165 -378
-312 -154 -184 -232 -343 -289 -595 -33 -143 -40 -641 -36 -2655 l3 -1805 22
-96 c31 -136 57 -219 107 -335 71 -167 144 -273 280 -410 210 -211 395 -312
691 -376 94 -20 133 -22 814 -27 393 -4 677 -8 630 -10 -47 -2 -92 -3 -102 -2
-20 2 -33 -15 -15 -21 27 -10 210 7 215 20 3 9 196 12 922 12 807 0 919 -2
924 -15 3 -8 17 -15 31 -15 28 0 35 19 8 22 -10 1 236 5 547 8 l565 6 140 37
c280 72 459 171 645 357 140 140 222 269 294 463 33 88 82 282 101 394 4 24 7
1003 7 2175 l1 2133 -22 103 c-65 307 -166 499 -370 703 -225 224 -391 309
-739 378 -36 8 -756 11 -2300 10 -2153 -1 -2251 -2 -2337 -20z m1007 -139
l739 0 -3 -82 -3 -83 -830 0 c-827 -1 -830 -1 -915 -23 -110 -29 -257 -100
-344 -165 -95 -73 -195 -199 -261 -332 -91 -183 -97 -218 -104 -582 -4 -187
-10 -316 -16 -322 -6 -5 -40 -7 -78 -4 l-69 6 4 331 c4 321 5 334 31 430 33
123 98 258 168 351 75 98 213 239 284 290 176 126 434 206 614 189 24 -2 376
-4 783 -4z m1068 -80 l0 -80 -85 0 -85 0 0 75 0 74 73 4 c39 1 78 4 85 5 9 1
12 -20 12 -78z m353 -100 l2 -175 -79 2 c-43 1 -79 3 -81 5 -1 2 -5 80 -8 173
l-6 170 85 0 84 0 3 -175z m308 170 l39 0 0 -75 0 -75 -85 0 -85 0 0 81 0 82
46 -7 c26 -3 64 -6 85 -6z m2008 -18 c115 -31 188 -64 306 -142 209 -136 390
-346 470 -545 71 -176 68 -155 72 -559 3 -203 1 -372 -4 -376 -4 -5 -39 -10
-78 -12 l-70 -3 -11 365 c-10 359 -11 366 -38 450 -119 360 -348 574 -716 666
-69 17 -123 19 -670 20 -327 1 -702 2 -832 3 l-238 1 0 80 0 81 863 -4 c856
-3 863 -3 946 -25z m-2087 -284 c15 -5 26 -13 24 -17 -2 -3 16 -4 40 -3 54 5
203 -14 219 -28 6 -5 15 -6 20 -2 4 4 -14 -22 -40 -58 -64 -87 -81 -125 -95
-199 -22 -124 16 -238 119 -348 16 -18 27 -33 24 -33 -4 0 2 -7 13 -15 10 -8
15 -15 11 -15 -16 0 69 -71 103 -86 60 -27 141 -14 233 36 43 24 81 48 84 55
2 7 14 15 25 18 11 3 18 10 15 14 -3 5 20 15 52 22 41 9 134 12 327 9 148 -1
339 1 425 6 142 8 159 7 180 -9 19 -14 20 -16 4 -10 -11 5 -50 10 -86 13 -81
5 -130 -17 -182 -80 -102 -127 -103 -252 -3 -353 106 -106 136 -125 189 -125
28 0 46 4 42 10 -3 5 9 22 27 37 68 58 107 103 133 158 25 49 27 64 23 128 -4
54 -3 66 5 50 10 -22 23 -27 59 -24 23 3 31 -88 21 -259 l-8 -135 -185 0
c-207 -1 -244 -8 -281 -57 -57 -75 -63 -123 -28 -203 13 -30 25 -86 31 -149 5
-56 14 -135 21 -176 l13 -75 212 3 212 3 0 -66 c0 -36 -1 -65 -2 -66 -2 0 -93
-4 -203 -8 -226 -9 -278 -22 -267 -63 7 -30 25 -43 91 -68 45 -17 77 -21 190
-21 182 0 197 -3 212 -42 7 -18 14 -34 16 -37 2 -3 -36 -6 -85 -5 -83 0 -93
-2 -168 -39 -205 -102 -291 -305 -214 -508 16 -44 105 -168 120 -168 3 0 16
-20 28 -44 22 -44 69 -75 91 -61 6 3 11 1 11 -5 0 -7 7 -9 16 -6 8 3 12 2 9
-4 -3 -6 -1 -11 4 -11 6 -1 14 -2 19 -4 4 -1 25 -5 47 -10 61 -12 95 -32 96
-58 3 -79 7 -551 8 -1086 l3 -625 -67 -34 c-75 -38 -152 -108 -178 -164 -16
-34 -20 -36 -43 -28 -15 6 -257 10 -605 10 l-581 0 5 417 c4 387 13 527 29
466 5 -20 21 -27 54 -22 4 0 11 -5 15 -13 7 -10 9 -10 9 2 1 8 11 -5 24 -30
12 -25 52 -101 88 -170 81 -153 138 -280 143 -321 2 -17 11 -41 19 -54 14 -21
30 -27 111 -40 17 -3 122 -6 235 -8 253 -3 525 31 505 63 -3 5 -1 11 5 15 6 4
8 10 5 14 -7 12 46 21 116 21 35 0 59 4 59 11 0 5 -24 51 -54 102 -58 99 -73
128 -277 547 -163 334 -328 662 -419 830 -38 69 -76 148 -86 176 l-17 50 47
50 c157 161 264 360 317 584 19 79 23 124 23 265 l0 170 -46 155 c-79 266
-161 412 -321 573 -198 198 -487 339 -754 366 -55 5 -383 9 -753 8 l-655 -2
-44 -85 c-52 -99 -97 -205 -228 -535 -52 -132 -126 -316 -165 -410 -289 -696
-465 -1132 -563 -1400 -76 -208 -111 -298 -200 -525 -113 -286 -147 -373 -244
-627 -56 -145 -101 -272 -101 -283 0 -18 7 -20 58 -21 31 -1 48 -4 38 -6 -15
-4 -6 -11 35 -30 30 -14 62 -27 72 -28 9 -2 21 -6 25 -9 5 -3 72 -12 150 -20
112 -13 166 -14 257 -6 218 19 283 33 314 69 9 10 22 20 29 22 7 2 41 74 76
159 34 85 116 286 180 445 115 283 214 515 224 525 3 3 3 -2 -1 -12 -9 -24 1
-28 36 -13 60 25 1064 41 1206 19 144 -21 243 -56 234 -82 -3 -8 3 -15 16 -19
11 -3 30 -21 41 -39 11 -19 30 -51 42 -71 l22 -38 -22 19 c-12 11 -22 14 -22
8 0 -6 -27 -12 -64 -14 l-64 -3 -27 53 c-57 109 -156 172 -248 158 -55 -9
-131 -52 -172 -97 -56 -62 -78 -116 -79 -189 -1 -73 12 -114 60 -181 22 -31
34 -62 37 -92 l4 -45 -74 39 c-99 52 -160 54 -250 5 l-63 -34 0 37 c0 28 7 44
30 66 46 44 62 89 62 171 0 60 -5 85 -27 129 -56 116 -162 189 -271 187 -71
-1 -155 -55 -206 -133 -31 -48 -32 -49 -82 -49 -174 -1 -272 -182 -207 -382
18 -58 20 -95 24 -459 l4 -397 -546 0 c-300 0 -562 -3 -582 -7 -34 -6 -37 -5
-67 42 -41 64 -83 103 -162 151 l-65 39 0 72 c0 39 2 439 3 889 1 449 6 811
10 804 20 -31 88 -20 187 29 67 33 81 43 110 78 l20 24 -25 -13 c-16 -8 -4 9
33 48 34 36 71 89 90 129 29 63 32 76 32 168 0 89 -4 106 -28 157 -36 74 -131
169 -205 205 -50 25 -68 28 -153 28 -94 0 -96 1 -83 20 21 34 37 173 35 320 0
77 2 170 5 208 l6 67 138 0 138 0 3 -124 c4 -115 6 -126 28 -150 15 -16 36
-27 55 -27 26 -2 27 -2 7 -6 -22 -4 -20 -7 18 -24 23 -10 71 -22 106 -25 71
-7 79 -16 64 -66 -5 -18 -9 -50 -9 -71 0 -68 64 -107 123 -76 35 19 38 29 31
120 l-6 86 74 7 c78 8 151 33 141 49 -3 6 -1 7 5 3 17 -10 69 41 84 82 9 27
13 113 13 317 -1 291 -6 338 -44 349 -17 5 -607 22 -650 18 -13 -1 -26 -4 -29
-7 -3 -3 -10 -70 -15 -148 -6 -84 -14 -145 -21 -150 -6 -4 -67 -6 -136 -5
l-125 3 -6 145 c-3 80 -10 226 -14 326 l-8 181 24 -2 c13 -2 34 4 46 11 l23
14 -6 -58 c-5 -47 -2 -68 15 -108 24 -53 80 -117 124 -140 37 -20 189 -17 214
3 10 8 11 11 3 7 -8 -5 -2 7 13 25 47 57 70 112 75 183 4 59 1 75 -22 122 -16
32 -49 75 -79 102 -29 26 -45 43 -37 38 8 -5 176 -9 387 -9 370 0 372 0 400
-22 15 -13 48 -32 73 -44 25 -12 47 -25 50 -30 3 -4 32 -20 63 -34 96 -42 195
-31 259 28 15 14 29 23 32 20 2 -3 10 6 17 19 6 12 17 26 23 30 7 5 7 8 -2 8
-8 0 5 19 28 43 57 59 107 143 125 212 20 77 19 94 -6 167 -23 71 -60 127
-118 184 l-41 39 78 -3 c124 -7 203 -6 265 0 31 4 57 3 57 0 0 -4 -22 -51 -49
-105 -103 -203 -87 -351 51 -490 32 -32 58 -64 58 -71 0 -31 85 -76 143 -76
43 0 99 19 91 31 -3 5 -1 9 5 9 25 0 153 148 189 219 64 129 56 270 -21 372
-18 23 -40 53 -49 68 -18 26 -24 91 -11 105 9 8 66 0 105 -16z m1966 -25 c-10
-2 -26 -2 -35 0 -10 3 -2 5 17 5 19 0 27 -2 18 -5z m-135 -57 l28 3 -30 -37
-29 -37 -208 8 c-115 4 -326 6 -469 5 l-261 -3 -22 33 -21 32 31 -16 c24 -12
44 -14 82 -9 28 4 231 9 450 10 315 1 401 4 404 14 3 8 7 9 11 3 3 -5 19 -8
34 -6z m-3750 -6 c252 0 455 -5 452 -9 -3 -5 2 -12 11 -15 8 -3 12 -2 9 4 -3
6 1 7 10 4 14 -6 14 -8 0 -24 -15 -17 -50 -19 -468 -23 -249 -2 -461 -7 -472
-11 -15 -5 -29 4 -58 38 l-37 45 47 -4 c27 -2 254 -4 506 -5z m2562 -50 c60
-25 111 -87 125 -153 26 -116 -17 -215 -116 -263 -95 -46 -191 -34 -267 35
-94 85 -103 209 -21 316 66 87 172 112 279 65z m-1677 4 c86 -36 141 -120 142
-217 0 -134 -108 -237 -249 -237 -149 1 -255 158 -209 312 16 55 79 123 131
141 56 20 139 21 185 1z m3255 -8 c108 -39 158 -107 165 -228 4 -69 2 -84 -22
-132 -59 -121 -214 -180 -330 -125 -98 45 -156 132 -156 231 0 185 175 314
343 254z m-4848 -15 c155 -72 200 -278 88 -402 -88 -97 -195 -120 -306 -65
-95 46 -147 131 -147 238 1 101 50 186 133 227 56 28 174 29 232 2z m2403 -15
c67 -35 105 -100 104 -176 0 -69 -14 -106 -55 -148 -70 -73 -144 -83 -223 -29
-69 47 -87 76 -92 150 -6 92 32 159 113 201 37 20 117 21 153 2z m1954 -106
c2 -3 2 -35 0 -72 l-4 -68 -396 0 -397 0 1 68 c0 37 2 69 2 72 1 3 179 5 396
5 217 0 396 -2 398 -5z m-3242 -69 l0 -70 -52 -6 c-29 -3 -210 -5 -403 -3
l-350 3 -6 65 c-4 36 -5 68 -2 73 2 4 186 7 409 7 l404 0 0 -69z m4047 -123
c-3 -8 -6 -5 -6 6 -1 11 2 17 5 13 3 -3 4 -12 1 -19z m-17 -65 c-11 -17 -11
-17 -6 0 3 10 7 26 7 35 1 15 2 15 6 0 2 -10 -1 -25 -7 -35z m-5605 -69 c20
-54 43 -110 52 -123 12 -19 14 -37 7 -90 -4 -36 -6 -110 -5 -165 l3 -98 -23
16 c-29 20 -61 20 -99 1 -41 -21 -53 -47 -34 -74 33 -46 97 -56 138 -21 11 8
15 3 19 -22 2 -18 2 -48 0 -65 -6 -38 -32 -46 -123 -41 l-55 3 -6 140 c-8 169
-2 466 10 516 7 30 71 131 78 125 1 -1 19 -47 38 -102z m5691 -28 c23 -69 26
-89 21 -165 -3 -47 -7 -174 -9 -281 l-3 -195 -80 0 -80 0 -2 85 c-2 66 0 79 8
60 17 -42 40 -60 76 -60 34 0 37 4 58 68 6 21 4 23 -14 17 -17 -5 -21 -2 -21
14 0 16 -6 21 -25 21 -14 0 -25 -4 -25 -9 0 -6 -8 -9 -17 -9 -10 0 -26 -3 -35
-7 -17 -7 -18 4 -19 136 0 139 -3 191 -13 234 -3 12 12 49 39 95 36 59 45 69
46 50 1 -17 3 -20 6 -7 2 9 10 17 18 17 7 0 15 10 19 23 8 30 19 13 52 -87z
m-5049 -92 c-15 -14 -27 -21 -27 -17 0 10 44 51 50 46 2 -2 -8 -15 -23 -29z
m4173 -79 c41 -21 60 -53 60 -101 0 -35 -5 -47 -31 -68 -48 -41 -113 -31 -156
24 -18 22 -15 92 5 116 36 44 74 54 122 29z m-4576 -10 c11 -8 41 -18 67 -21
45 -6 47 -8 53 -43 3 -20 6 -310 6 -645 l0 -609 -68 -66 c-45 -44 -81 -70
-107 -78 -38 -12 -174 -15 -502 -14 l-153 1 0 72 0 71 258 -7 c317 -9 365 -4
394 36 21 30 21 33 19 674 -1 354 1 644 6 644 4 0 17 -7 27 -15z m590 4 c69
-32 69 -146 0 -175 -29 -12 -39 -12 -62 -2 -57 28 -66 109 -17 162 27 29 42
32 79 15z m4549 -111 c4 -62 7 -346 7 -631 0 -471 2 -520 17 -544 33 -50 66
-55 356 -61 l267 -5 0 -63 0 -64 -295 0 c-235 0 -303 3 -330 14 -47 20 -121
83 -148 126 -22 35 -22 38 -24 605 -1 314 1 603 4 643 l5 72 32 1 c17 0 40 4
51 9 49 21 52 17 58 -102z m-1893 -158 c279 -46 552 -207 709 -419 152 -205
240 -526 211 -773 -29 -254 -151 -480 -353 -659 -51 -45 -93 -85 -95 -89 -3
-9 124 -268 161 -328 13 -20 68 -122 122 -227 54 -104 113 -217 131 -250 76
-138 382 -760 376 -765 -4 -3 -144 -4 -313 -2 l-305 3 -42 82 c-23 45 -59 114
-80 152 -21 39 -85 160 -142 270 -56 110 -147 279 -201 376 -54 97 -112 206
-130 242 l-33 67 -717 2 -717 3 33 80 c19 44 62 150 95 235 34 85 82 204 107
263 l46 109 481 -3 c474 -3 482 -3 539 19 238 89 387 276 387 486 0 150 -60
287 -180 407 -86 87 -182 140 -300 165 -83 17 -666 22 -682 6 -13 -13 -98
-208 -154 -352 -147 -377 -251 -637 -319 -795 -43 -99 -132 -317 -200 -485
-68 -168 -169 -417 -225 -555 -56 -137 -113 -279 -125 -315 -26 -71 -170 -426
-184 -450 -7 -13 -51 -14 -312 -11 -167 1 -305 4 -307 6 -2 2 15 50 37 107
127 324 236 602 261 668 40 102 371 946 430 1095 74 188 329 815 440 1085 55
135 126 308 156 385 31 77 61 149 68 160 13 20 23 20 637 18 380 -2 649 -7
689 -13z m1313 -105 c-3 -9 -8 -14 -10 -11 -3 3 -2 9 2 15 9 16 15 13 8 -4z
m295 -227 l-3 -63 -202 -3 -203 -2 0 60 0 59 118 4 c64 1 157 4 205 5 l88 2
-3 -62z m-3713 -170 l3 -217 -214 -3 -214 -3 0 223 0 222 211 -2 211 -3 3
-217z m4345 208 c102 -3 213 -5 248 -6 l62 0 0 -65 0 -65 -123 0 c-68 0 -185
3 -260 7 l-137 6 0 68 c0 50 3 67 13 64 6 -2 95 -6 197 -9z m-5750 -23 l95 -3
-3 -64 -4 -63 -81 -7 c-45 -3 -164 -6 -264 -6 l-183 0 0 53 c0 28 -3 61 -6 72
-5 19 0 20 173 20 98 0 221 -1 273 -2z m5115 -279 c4 -36 4 -69 0 -72 -12 -12
-368 -15 -397 -3 -26 10 -28 14 -28 71 l0 60 203 3 c111 1 205 3 208 5 4 1 10
-28 14 -64z m868 30 l67 -6 0 -42 0 -43 -46 -7 c-26 -3 -140 -6 -253 -6 l-206
0 0 61 0 61 185 -6 c102 -4 215 -9 253 -12z m-5883 -28 c0 -7 -3 -27 -6 -43
l-6 -30 -169 -7 c-92 -4 -209 -4 -259 0 l-90 7 0 38 0 38 133 4 c363 8 397 7
397 -7z m0 -250 c0 -93 22 -86 -271 -86 l-259 0 0 65 0 65 248 3 c136 1 255 3
265 5 14 2 17 -6 17 -52z m5960 -22 l0 -61 -92 -7 c-50 -3 -165 -6 -255 -6
l-163 0 0 60 c0 50 3 60 18 61 106 7 298 14 385 14 l107 0 0 -61z m-2875 26
c75 -6 123 -16 152 -30 23 -11 46 -20 51 -20 5 0 25 -12 44 -27 20 -16 45 -35
57 -43 12 -8 23 -21 26 -30 3 -8 21 -33 41 -55 35 -39 36 -41 31 -107 -10
-117 -72 -204 -191 -263 l-50 -25 -447 0 -447 0 55 138 c30 75 65 166 78 202
30 86 73 179 88 194 24 24 67 48 104 58 45 12 225 26 268 21 17 -2 80 -8 140
-13z m-2487 -524 c153 -77 182 -265 60 -386 -39 -40 -122 -80 -164 -80 -91 0
-207 83 -232 166 -39 132 27 275 149 321 48 18 128 9 187 -21z m4447 0 c107
-50 160 -146 137 -253 -34 -161 -167 -239 -322 -188 -84 28 -160 132 -160 217
0 14 6 46 14 71 43 142 200 215 331 153z m-4907 -22 c-11 -11 -18 -12 -22 -5
-4 6 0 11 8 11 9 0 16 5 16 12 0 6 3 8 7 4 4 -3 0 -14 -9 -22z m-32 -156 c-3
-29 -6 -63 -6 -75 l0 -23 -316 0 c-284 0 -316 2 -310 16 3 9 6 40 6 69 l0 54
113 4 c61 1 204 4 316 5 l204 2 -7 -52z m5847 -15 c-3 -38 -8 -70 -10 -73 -3
-3 -144 -6 -314 -8 l-309 -4 0 76 0 76 319 0 319 0 -5 -67z m-6003 -249 c47
-4 92 -10 100 -15 13 -7 13 -9 0 -10 -8 0 -26 -2 -40 -3 -175 -17 -517 -13
-537 7 -3 4 -3 14 1 23 6 15 24 16 199 10 105 -3 230 -9 277 -12z m6000 -18
c0 -23 -5 -25 -62 -31 -35 -4 -173 -5 -308 -3 -135 2 -267 0 -295 -4 -31 -5
-40 -4 -24 1 14 5 66 14 115 21 49 6 98 16 109 21 21 9 104 13 333 17 l132 2
0 -24z m-5986 -240 c3 -49 6 -466 6 -926 l0 -836 30 -29 c17 -16 30 -32 30
-37 0 -4 -23 -39 -51 -77 -56 -78 -83 -150 -94 -256 l-8 -70 -36 100 -36 100
-1 705 c0 388 1 865 4 1060 l5 355 72 0 72 0 7 -89z m-322 -878 c-2 -693 0
-984 8 -1038 26 -168 101 -349 196 -476 137 -182 329 -312 526 -356 89 -21
124 -22 786 -25 l692 -4 0 -90 0 -89 -654 0 c-696 0 -734 2 -901 51 -374 112
-673 424 -778 815 l-31 119 -3 1022 -4 1022 78 4 c43 1 80 4 83 5 3 1 4 -431
2 -960z m549 931 c24 -17 56 -43 72 -57 l27 -26 0 -835 c0 -460 -4 -841 -8
-848 -4 -6 -29 -14 -57 -18 -27 -4 -60 -12 -72 -16 l-23 -9 0 920 c0 506 4
920 8 920 5 0 29 -14 53 -31z m5788 -69 l1 -70 -333 -2 -332 -3 -3 -83 -3 -84
328 3 328 3 -1 -22 c0 -12 -1 -43 -2 -69 l-2 -48 -303 -1 c-166 0 -315 -4
-331 -8 l-29 -7 6 -420 c3 -230 3 -533 0 -673 l-6 -253 -45 13 c-25 8 -56 14
-69 14 l-23 0 0 844 c0 826 0 844 20 869 11 13 39 34 62 46 41 20 57 21 389
21 l347 0 1 -70z m-9 -589 c0 -54 -4 -70 -16 -75 -9 -3 -130 -6 -271 -6 -229
0 -255 2 -249 16 3 9 6 42 6 75 l0 59 265 0 265 0 0 -69z m-3594 -110 c90 -41
112 -125 50 -187 -30 -30 -40 -34 -85 -34 -62 0 -115 20 -131 50 -18 34 -15
99 7 129 20 27 77 61 103 61 8 0 33 -9 56 -19z m784 -29 c44 -43 50 -73 25
-122 -23 -45 -48 -54 -153 -51 -144 4 -105 210 40 211 41 0 52 -5 88 -38z
m-1091 -96 c22 -26 30 -76 21 -129 -5 -36 -4 -54 4 -59 8 -5 12 -175 14 -626
l3 -619 -48 -6 c-26 -3 -341 -3 -700 0 l-652 6 -3 79 -3 78 630 2 630 3 1 558
1 557 -28 37 c-37 46 -38 85 -3 112 32 25 115 29 133 7z m3555 -27 c10 -53 7
-1072 -4 -1130 -5 -30 -25 -94 -42 -144 l-33 -90 -7 83 c-10 123 -31 176 -105
268 -18 23 -33 45 -33 50 0 5 14 21 32 36 l33 27 3 465 3 466 73 0 74 0 6 -31z
m323 -526 l-3 -558 -27 -104 c-33 -124 -66 -209 -119 -305 -157 -279 -415
-479 -736 -568 -75 -21 -96 -22 -790 -25 l-713 -4 3 88 3 88 690 6 c454 4 706
10 737 17 178 42 260 77 374 158 71 50 193 177 239 249 44 68 104 189 127 255
50 145 53 173 54 570 0 206 1 446 2 533 l2 157 81 0 80 0 -4 -557z m-2543 517
c58 -13 71 -30 56 -75 -16 -49 -45 -61 -107 -46 -26 7 -53 17 -60 23 -19 16
-16 52 8 82 22 28 41 31 103 16z m-280 -837 c-1 -362 -3 -790 -3 -950 l-1
-293 -74 0 -74 0 -2 698 c0 383 2 811 6 950 l7 252 71 0 71 0 -1 -657z m-717
624 c4 -4 9 -426 11 -937 l5 -930 -77 0 -76 0 -2 203 c-3 350 4 1662 10 1671
5 9 118 3 129 -7z m1009 -31 c3 -13 6 -243 7 -510 l2 -487 570 3 c676 3 714 3
719 -3 2 -2 6 -39 8 -81 l5 -78 -717 0 -718 0 -6 248 c-9 346 -11 580 -8 770
l2 162 65 0 c60 0 65 -2 71 -24z m-683 -90 c91 -39 115 -128 48 -173 -68 -46
-181 -19 -205 49 -13 36 20 98 65 120 41 22 50 22 92 4z m47 -1041 l0 -705
-80 0 -80 0 0 705 0 705 80 0 80 0 0 -705z m-2380 326 c100 -51 142 -125 141
-248 -1 -117 -46 -189 -153 -244 -124 -63 -284 -11 -351 115 -27 51 -29 180
-4 236 34 76 91 132 162 158 49 19 154 10 205 -17z m4835 15 c49 -21 121 -91
146 -143 31 -65 31 -168 -1 -242 -26 -59 -94 -121 -156 -141 -114 -38 -266 36
-325 157 -61 125 7 306 136 364 49 23 152 25 200 5z m-3128 -604 c-3 -41 -9
-77 -12 -80 -4 -4 -298 -10 -653 -14 -356 -4 -712 -9 -792 -12 -80 -2 -133 -2
-117 0 15 3 27 11 27 17 0 7 8 20 18 29 9 9 30 30 46 47 40 43 99 71 149 71
23 0 49 5 57 10 10 7 242 9 649 8 l634 -3 -6 -73z m2653 37 c19 -22 54 -60 77
-84 24 -25 39 -46 35 -47 -4 0 13 -4 38 -9 25 -4 -33 -6 -135 -3 -753 18
-1600 15 -1410 -6 l50 -5 0 -165 0 -164 -50 2 c-91 5 -85 -7 -85 172 0 141 2
160 18 169 16 10 16 10 0 11 -16 0 -18 11 -18 80 l0 80 443 3 c243 1 568 3
722 4 l280 3 35 -41z m-2707 -284 l47 -6 0 -95 0 -94 -65 0 -65 0 0 104 c0 94
2 104 18 101 9 -2 38 -7 65 -10z"/>
<path d="M6517 7266 c-28 -26 -43 -81 -32 -123 10 -41 54 -83 86 -83 30 0 75
45 85 86 26 102 -70 184 -139 120z"/>
<path d="M3567 7259 c-38 -29 -52 -88 -32 -136 23 -54 44 -73 81 -73 24 0 39
9 63 35 27 31 31 43 31 91 0 45 -4 59 -25 79 -30 31 -82 33 -118 4z"/>
<path d="M3949 7217 c-61 -41 -64 -104 -8 -159 25 -25 35 -29 62 -24 82 15
116 119 58 177 -35 35 -67 37 -112 6z"/>
<path d="M3030 6900 c8 -5 20 -10 25 -10 6 0 3 5 -5 10 -8 5 -19 10 -25 10 -5
0 -3 -5 5 -10z"/>
<path d="M3074 6881 c7 -11 56 -20 73 -14 24 9 2 23 -38 23 -22 0 -38 -4 -35
-9z"/>
<path d="M3001 6011 c-42 -39 -42 -79 0 -120 34 -35 56 -38 99 -16 56 29 68
98 25 140 -34 35 -84 34 -124 -4z"/>
<path d="M3447 5709 c-22 -13 -47 -61 -47 -93 0 -34 55 -96 85 -96 31 0 85 62
85 98 0 37 -26 71 -66 88 -39 16 -34 16 -57 3z"/>
<path d="M6970 4932 c-61 -39 -114 -100 -135 -155 -37 -99 -3 -238 79 -317 20
-19 36 -40 36 -46 0 -6 16 -18 35 -27 40 -19 115 -23 115 -6 0 6 6 9 14 6 8
-3 16 -3 18 1 2 4 21 16 43 27 54 27 131 100 162 152 51 88 20 226 -72 317
-52 53 -91 69 -175 73 -69 4 -78 2 -120 -25z m207 -168 c47 -48 55 -82 28
-134 -24 -47 -62 -70 -115 -70 -53 0 -91 23 -115 70 -46 89 36 200 134 182 14
-3 44 -24 68 -48z"/>
<path d="M2980 4812 c-38 -38 -47 -89 -25 -133 41 -78 111 -92 152 -30 43 64
26 143 -37 176 -41 21 -58 19 -90 -13z"/>
<path d="M3003 4485 c-58 -25 -70 -83 -28 -133 14 -17 40 -34 57 -37 28 -6 36
-3 60 24 45 51 37 120 -19 149 -27 15 -30 15 -70 -3z"/>
<path d="M7149 4249 c-42 -45 -41 -99 4 -144 25 -25 30 -35 19 -41 -20 -13
-20 -45 1 -58 23 -15 48 1 60 38 7 21 6 31 -4 37 -8 5 -9 9 -3 9 17 0 54 75
54 109 0 38 -41 81 -77 81 -15 0 -37 -13 -54 -31z"/>
<path d="M2956 4218 c-31 -48 -30 -75 2 -108 36 -36 61 -38 89 -7 30 33 36 62
19 95 -25 48 -85 58 -110 20z"/>
<path d="M3968 3319 c-10 -5 -34 -31 -53 -56 -29 -38 -35 -54 -35 -96 0 -90
73 -177 148 -177 33 0 101 46 136 93 15 20 20 42 20 81 -2 98 -65 166 -153
166 -25 0 -54 -5 -63 -11z m90 -96 c32 -28 36 -59 13 -82 -40 -40 -85 -18 -83
42 0 17 8 37 18 44 23 17 28 16 52 -4z"/>
<path d="M6108 3255 c-64 -43 -75 -115 -28 -188 36 -57 69 -73 108 -53 91 47
118 171 52 238 -36 36 -82 37 -132 3z"/>
<path d="M5889 7771 c-64 -65 -20 -171 71 -171 73 0 117 67 86 132 -33 69
-108 88 -157 39z"/>
<path d="M4227 7770 c-15 -12 -29 -36 -33 -56 -20 -105 102 -165 170 -83 30
35 32 58 11 99 -31 60 -99 78 -148 40z"/>
<path d="M7491 7766 c-34 -19 -50 -54 -51 -107 0 -56 25 -92 74 -109 46 -15
80 -4 116 36 40 46 42 108 5 148 -41 45 -98 57 -144 32z"/>
<path d="M2600 7751 c-36 -36 -46 -72 -31 -120 16 -57 53 -86 108 -86 39 0 49
5 74 34 39 48 45 81 20 130 -38 73 -120 94 -171 42z"/>
<path d="M5049 7751 c-36 -37 -37 -62 -1 -103 38 -41 85 -43 119 -4 30 36 30
80 -2 111 -34 35 -78 33 -116 -4z"/>
<path d="M2268 7244 c-39 -20 -38 -65 1 -104 36 -36 68 -31 87 16 19 45 18 60
-8 84 -26 24 -43 25 -80 4z"/>
<path d="M7885 7237 c-21 -16 -15 -69 12 -99 21 -23 75 -23 96 0 48 53 -48
142 -108 99z"/>
<path d="M4625 6741 c-91 -55 -91 -179 0 -217 71 -29 138 -6 168 59 21 43 21
58 3 102 -28 66 -111 93 -171 56z"/>
<path d="M6356 5975 c-43 -23 -55 -45 -56 -96 0 -41 4 -51 35 -78 20 -17 46
-31 58 -31 57 0 125 81 111 134 -8 33 -54 75 -89 81 -18 3 -42 -1 -59 -10z"/>
<path d="M4936 5089 c-47 -40 -61 -91 -39 -136 22 -47 59 -73 104 -73 72 0
127 91 99 165 -31 81 -101 100 -164 44z"/>
<path d="M3496 3889 c-66 -18 -106 -86 -87 -149 15 -52 53 -80 105 -80 128 1
163 195 41 229 -16 4 -43 4 -59 0z"/>
<path d="M6582 3876 c-35 -19 -62 -66 -62 -108 0 -70 84 -134 149 -113 31 9
71 74 71 113 0 89 -87 148 -158 108z"/>
<path d="M3404 6551 c-2 -2 -4 -40 -4 -83 l0 -79 93 3 92 3 0 75 0 75 -88 5
c-49 3 -91 3 -93 1z"/>
<path d="M5344 6089 c-61 -18 -124 -112 -124 -186 0 -85 55 -185 123 -223 54
-31 166 -32 222 -3 177 93 178 310 3 397 -42 21 -65 26 -122 25 -39 0 -85 -5
-102 -10z m175 -147 c39 -29 40 -73 1 -106 -38 -31 -68 -33 -120 -6 -43 22
-55 46 -41 83 22 58 101 73 160 29z"/>
<path d="M2827 5479 c-29 -17 -49 -68 -43 -105 15 -78 102 -118 160 -73 63 49
69 118 14 164 -32 27 -97 34 -131 14z"/>
<path d="M7292 5483 c-21 -8 -42 -59 -42 -102 0 -31 7 -46 31 -70 47 -48 108
-38 150 25 33 50 20 107 -31 137 -27 16 -81 21 -108 10z"/>
<path d="M2615 2838 c-61 -47 -71 -129 -24 -183 28 -31 37 -35 80 -35 40 0 54
5 84 31 30 27 35 37 35 76 0 55 -22 98 -60 118 -41 21 -83 19 -115 -7z"/>
<path d="M7510 2853 c-31 -11 -71 -58 -80 -95 -21 -75 40 -148 124 -148 31 0
45 7 77 39 32 32 39 46 39 77 0 85 -87 153 -160 127z"/>
<path d="M3078 1743 c23 -2 61 -2 85 0 23 2 4 4 -43 4 -47 0 -66 -2 -42 -4z"/>
<path d="M3325 1740 c76 -12 317 -12 310 0 -4 6 -74 9 -183 9 -125 -1 -162 -4
-127 -9z"/>
<path d="M3818 1743 c7 -3 16 -2 19 1 4 3 -2 6 -13 5 -11 0 -14 -3 -6 -6z"/>
<path d="M3897 1743 c18 -2 50 -2 70 0 21 2 7 4 -32 4 -38 0 -55 -2 -38 -4z"/>
<path d="M4040 1739 c0 -5 5 -7 10 -4 6 3 10 8 10 11 0 2 -4 4 -10 4 -5 0 -10
-5 -10 -11z"/>
<path d="M4891 1746 c2 -2 51 -6 109 -8 67 -4 90 -2 65 3 -39 8 -182 12 -174
5z"/>
<path d="M5658 1743 c7 -3 16 -2 19 1 4 3 -2 6 -13 5 -11 0 -14 -3 -6 -6z"/>
<path d="M5745 1741 c-13 -5 3 -8 42 -7 34 1 65 5 69 9 10 9 -86 8 -111 -2z"/>
<path d="M5971 1746 c9 -9 189 -15 184 -6 -4 6 -47 10 -97 10 -50 0 -89 -2
-87 -4z"/>
<path d="M6568 1733 c6 -2 18 -2 25 0 6 3 1 5 -13 5 -14 0 -19 -2 -12 -5z"/>
<path d="M4923 1723 c9 -2 23 -2 30 0 6 3 -1 5 -18 5 -16 0 -22 -2 -12 -5z"/>
</g>
</svg>
